<svg width="34" height="34" viewBox="0 0 34 34" fill="none" xmlns="http://www.w3.org/2000/svg">
<circle cx="17" cy="17" r="17" fill="#D9D9D9"/>
<path d="M20.1667 27C19.5861 27 19.0893 26.7935 18.6762 26.3804C18.2631 25.9673 18.0563 25.4701 18.0556 24.8889V20.6667C18.0556 20.0861 18.2624 19.5893 18.6762 19.1762C19.09 18.7631 19.5868 18.5563 20.1667 18.5556H24.3889C24.9694 18.5556 25.4666 18.7624 25.8804 19.1762C26.2942 19.59 26.5007 20.0868 26.5 20.6667V24.8889C26.5 25.4694 26.2935 25.9666 25.8804 26.3804C25.4673 26.7942 24.9701 27.0007 24.3889 27H20.1667ZM20.1667 16.4444C19.5861 16.4444 19.0893 16.2379 18.6762 15.8248C18.2631 15.4118 18.0563 14.9146 18.0556 14.3333V10.1111C18.0556 9.53056 18.2624 9.03374 18.6762 8.62067C19.09 8.20759 19.5868 8.0007 20.1667 8H24.3889C24.9694 8 25.4666 8.20689 25.8804 8.62067C26.2942 9.03444 26.5007 9.53126 26.5 10.1111V14.3333C26.5 14.9139 26.2935 15.4111 25.8804 15.8248C25.4673 16.2386 24.9701 16.4451 24.3889 16.4444H20.1667ZM9.61111 16.4444C9.03056 16.4444 8.53374 16.2379 8.12067 15.8248C7.70759 15.4118 7.5007 14.9146 7.5 14.3333V10.1111C7.5 9.53056 7.70689 9.03374 8.12067 8.62067C8.53444 8.20759 9.03126 8.0007 9.61111 8H13.8333C14.4139 8 14.9111 8.20689 15.3248 8.62067C15.7386 9.03444 15.9451 9.53126 15.9444 10.1111V14.3333C15.9444 14.9139 15.7379 15.4111 15.3248 15.8248C14.9118 16.2386 14.4146 16.4451 13.8333 16.4444H9.61111ZM9.61111 27C9.03056 27 8.53374 26.7935 8.12067 26.3804C7.70759 25.9673 7.5007 25.4701 7.5 24.8889V20.6667C7.5 20.0861 7.70689 19.5893 8.12067 19.1762C8.53444 18.7631 9.03126 18.5563 9.61111 18.5556H13.8333C14.4139 18.5556 14.9111 18.7624 15.3248 19.1762C15.7386 19.59 15.9451 20.0868 15.9444 20.6667V24.8889C15.9444 25.4694 15.7379 25.9666 15.3248 26.3804C14.9118 26.7942 14.4146 27.0007 13.8333 27H9.61111Z" fill="#8B8B8B"/>
</svg>
