<svg width="35" height="35" viewBox="0 0 35 35" fill="none" xmlns="http://www.w3.org/2000/svg">
<g clip-path="url(#clip0_242_444)">
<path d="M18.9011 31.9636L4 17.0625V20.1066C4 20.9133 4.31963 21.6896 4.89802 22.2528L16.755 34.1097C17.9422 35.2969 19.8752 35.2969 21.0624 34.1097L30.5145 24.6576C31.7017 23.4704 31.7017 21.5374 30.5145 20.3502L18.9011 31.9636Z" fill="#040078"/>
<path d="M16.755 26.4993C17.9422 27.6865 19.8752 27.6865 21.0624 26.4993L30.5145 17.0472C31.7017 15.86 31.7017 13.9269 30.5145 12.7397L18.6575 0.882801C18.0794 0.318572 17.3041 0.00189548 16.4962 0L7.04414 0C5.36986 0 4 1.36986 4 3.04414V12.4962C4 13.3029 4.31963 14.0792 4.89802 14.6423L16.755 26.4993ZM10.4688 4.56621C10.9734 4.56621 11.4573 4.76666 11.8141 5.12347C12.1709 5.48027 12.3714 5.9642 12.3714 6.4688C12.3714 6.9734 12.1709 7.45733 11.8141 7.81413C11.4573 8.17094 10.9734 8.37139 10.4688 8.37139C9.9642 8.37139 9.48027 8.17094 9.12347 7.81413C8.76666 7.45733 8.56621 6.9734 8.56621 6.4688C8.56621 5.9642 8.76666 5.48027 9.12347 5.12347C9.48027 4.76666 9.9642 4.56621 10.4688 4.56621Z" fill="#040078"/>
</g>
<defs>
<clipPath id="clip0_242_444">
<rect width="35" height="35" fill="white"/>
</clipPath>
</defs>
</svg>
