<svg width="36" height="36" viewBox="0 0 36 36" fill="none" xmlns="http://www.w3.org/2000/svg">
<path d="M19.4249 30.7076L5.3064 16.5891V19.4734C5.3064 20.2377 5.60924 20.9732 6.15726 21.5068L17.3915 32.741C18.5163 33.8659 20.3478 33.8659 21.4727 32.741L30.4284 23.7854C31.5532 22.6605 31.5532 20.829 30.4284 19.7041L19.4249 30.7076Z" fill="#040078"/>
<path d="M17.3915 25.5304C18.5163 26.6553 20.3478 26.6553 21.4727 25.5304L30.4284 16.5747C31.5532 15.4499 31.5532 13.6184 30.4284 12.4935L19.1941 1.25929C18.6463 0.724693 17.9117 0.424647 17.1463 0.422852L8.19066 0.422852C6.60432 0.422852 5.3064 1.72077 5.3064 3.30712V12.2628C5.3064 13.0271 5.60924 13.7626 6.15726 14.2962L17.3915 25.5304ZM11.4355 4.74925C11.9136 4.74925 12.3721 4.93917 12.7101 5.27724C13.0482 5.61531 13.2381 6.07382 13.2381 6.55192C13.2381 7.03001 13.0482 7.48853 12.7101 7.8266C12.3721 8.16466 11.9136 8.35458 11.4355 8.35458C10.9574 8.35458 10.4989 8.16466 10.1608 7.8266C9.82272 7.48853 9.6328 7.03001 9.6328 6.55192C9.6328 6.07382 9.82272 5.61531 10.1608 5.27724C10.4989 4.93917 10.9574 4.74925 11.4355 4.74925Z" fill="#040078"/>
</svg>
