<svg width="34" height="34" viewBox="0 0 34 34" fill="none" xmlns="http://www.w3.org/2000/svg">
<circle cx="17" cy="17" r="17" fill="#D9D9D9"/>
<path d="M19.0455 20.1538C19.532 20.7673 20.2103 21.2205 20.9844 21.4492C21.7584 21.6778 22.5889 21.6704 23.3582 21.4279C24.1274 21.1854 24.7966 20.7201 25.2707 20.098C25.7449 19.4759 26 18.7284 26 17.9615C26 17.1372 25.7002 16.3845 25.2134 15.7736L25.2273 15.7692L17.5 7L9.77273 15.7692L9.78664 15.7736C9.27902 16.4022 9.00276 17.1706 9 17.9615C9 18.7284 9.25514 19.4759 9.72929 20.098C10.2034 20.7201 10.8726 21.1854 11.6418 21.4279C12.4111 21.6704 13.2416 21.6778 14.0156 21.4492C14.7897 21.2205 15.468 20.7673 15.9545 20.1538L16.7273 19.1805V22.3462C16.7273 24.5385 12.8636 24.5385 12.8636 24.5385C12.6587 24.5385 12.4622 24.6155 12.3172 24.7525C12.1723 24.8895 12.0909 25.0754 12.0909 25.2692C12.0909 25.463 12.1723 25.6489 12.3172 25.786C12.4622 25.923 12.6587 26 12.8636 26H22.1364C22.3413 26 22.5379 25.923 22.6828 25.786C22.8277 25.6489 22.9091 25.463 22.9091 25.2692C22.9091 25.0754 22.8277 24.8895 22.6828 24.7525C22.5379 24.6155 22.3413 24.5385 22.1364 24.5385C22.1364 24.5385 18.2727 24.5385 18.2727 22.3462V19.1805L19.0455 20.1538Z" fill="#8B8B8B"/>
</svg>
