<svg width="35" height="35" viewBox="0 0 35 35" fill="none" xmlns="http://www.w3.org/2000/svg">
<path fill-rule="evenodd" clip-rule="evenodd" d="M19.49 0.966013C19.3514 0.675681 19.1387 0.43156 18.8755 0.260957C18.6124 0.0903549 18.3092 0 18 0C17.6908 0 17.3876 0.0903549 17.1245 0.260957C16.8613 0.43156 16.6486 0.675681 16.51 0.966013L15.17 3.77864C11.5049 4.51808 8.23386 6.66583 5.99592 9.80235C3.75798 12.9389 2.71387 16.8389 3.06753 20.7405C3.42119 24.6422 5.14722 28.2653 7.90846 30.9021C10.6697 33.5389 14.2678 35 18 35C21.7322 35 25.3303 33.5389 28.0915 30.9021C30.8528 28.2653 32.5788 24.6422 32.9325 20.7405C33.2861 16.8389 32.242 12.9389 30.0041 9.80235C27.7661 6.66583 24.4951 4.51808 20.83 3.77864L19.49 0.966013ZM26.2566 10.5958C23.2317 10.3858 20.0567 11.1751 17.0317 13.4452L16.6183 13.7427C13.715 15.7433 10.6833 16.0303 7.91836 15.3109C7.62672 15.2183 7.33614 15.1221 7.04669 15.0222C6.65772 16.1355 6.42473 17.3022 6.35503 18.4859C6.57725 18.5594 6.83058 18.6335 7.11502 18.7082C10.8817 19.6883 15.0533 19.2297 18.9683 16.2928L19.3817 15.9953C22.285 13.993 25.3167 13.706 28.0816 14.4271L28.825 14.6739C28.239 13.1473 27.3644 11.7603 26.2566 10.5958ZM29.6466 20.0033C29.3955 19.9214 29.142 19.8473 28.8866 19.781C25.12 18.7992 20.9483 19.2577 17.0333 22.1964L16.62 22.4939C13.7167 24.4944 10.685 24.7815 7.92002 24.0621C7.66905 23.9825 7.41903 23.8997 7.17002 23.8136C7.76002 25.3538 8.63669 26.7365 9.73168 27.8916C12.76 28.1052 15.9417 27.3158 18.97 25.044L19.3833 24.7465C22.2867 22.7442 25.3183 22.4572 28.0833 23.1783L28.9583 23.4688C29.3463 22.3547 29.5782 21.1874 29.6466 20.0033Z" fill="#fff"/>
</svg>
