<svg width="37" height="37" viewBox="0 0 37 37" fill="none" xmlns="http://www.w3.org/2000/svg">
<path fill-rule="evenodd" clip-rule="evenodd" d="M19.7394 4.12894C19.6136 3.87798 19.4205 3.66697 19.1816 3.51951C18.9428 3.37205 18.6676 3.29395 18.3869 3.29395C18.1062 3.29395 17.831 3.37205 17.5922 3.51951C17.3533 3.66697 17.1602 3.87798 17.0344 4.12894L15.8181 6.56008C12.4912 7.19924 9.52207 9.05568 7.49067 11.7668C5.45927 14.4779 4.51152 17.8489 4.83254 21.2214C5.15356 24.5939 6.72029 27.7256 9.22671 30.0048C11.7331 32.2839 14.9992 33.5468 18.3869 33.5468C21.7746 33.5468 25.0407 32.2839 27.5471 30.0048C30.0535 27.7256 31.6203 24.5939 31.9413 21.2214C32.2623 17.8489 31.3146 14.4779 29.2832 11.7668C27.2517 9.05568 24.2826 7.19924 20.9557 6.56008L19.7394 4.12894ZM25.8816 12.4526C23.1357 12.2711 20.2538 12.9534 17.5079 14.9155L17.1328 15.1727C14.4974 16.9019 11.7455 17.15 9.23569 16.5282C8.97096 16.4482 8.70721 16.365 8.44447 16.2786C8.09139 17.241 7.87991 18.2495 7.81664 19.2726C8.01835 19.3361 8.2483 19.4001 8.50649 19.4647C11.9255 20.3119 15.7122 19.9155 19.2659 17.377L19.6411 17.1198C22.2764 15.3891 25.0283 15.141 27.5381 15.7643L28.2129 15.9776C27.6809 14.658 26.8871 13.4592 25.8816 12.4526ZM28.9587 20.5842C28.7307 20.5134 28.5006 20.4493 28.2688 20.3921C24.8498 19.5434 21.0631 19.9397 17.5095 22.4798L17.1343 22.737C14.4989 24.4662 11.747 24.7143 9.2372 24.0925C9.00939 24.0237 8.78245 23.9521 8.55642 23.8777C9.09197 25.209 9.88773 26.4041 10.8817 27.4026C13.6305 27.5872 16.5185 26.9049 19.2674 24.9412L19.6426 24.684C22.278 22.9533 25.0298 22.7052 27.5396 23.3285L28.3339 23.5796C28.6861 22.6167 28.8965 21.6077 28.9587 20.5842Z" fill="#040078"/>
</svg>
