<svg width="35" height="34" viewBox="0 0 35 34" fill="none" xmlns="http://www.w3.org/2000/svg">
<path d="M29.2058 2.83325H6.53914C5.7877 2.83325 5.06703 3.13176 4.53567 3.66312C4.00432 4.19447 3.70581 4.91514 3.70581 5.66659V22.6666C3.70581 23.418 4.00432 24.1387 4.53567 24.6701C5.06703 25.2014 5.7877 25.4999 6.53914 25.4999H12.2058L17.8725 31.1666L23.5391 25.4999H29.2058C29.9573 25.4999 30.6779 25.2014 31.2093 24.6701C31.7406 24.1387 32.0391 23.418 32.0391 22.6666V5.66659C32.0391 4.91514 31.7406 4.19447 31.2093 3.66312C30.6779 3.13176 29.9573 2.83325 29.2058 2.83325ZM17.8725 6.09159C19.9975 6.09159 21.6975 7.79159 21.6975 9.91659C21.6975 12.0416 19.9975 13.7416 17.8725 13.7416C15.7475 13.7416 14.0475 12.0416 14.0475 9.91659C14.0475 7.79159 15.7475 6.09159 17.8725 6.09159ZM26.3725 21.2499H9.37248V19.9749C9.37248 17.1416 15.0391 15.5833 17.8725 15.5833C20.7058 15.5833 26.3725 17.1416 26.3725 19.9749V21.2499Z" fill="#040078"/>
</svg>
