<svg width="34" height="34" viewBox="0 0 34 34" fill="none" xmlns="http://www.w3.org/2000/svg">
<circle cx="17" cy="17" r="17" fill="#D9D9D9"/>
<mask id="mask0_189_665" style="mask-type:alpha" maskUnits="userSpaceOnUse" x="6" y="6" width="23" height="23">
<rect x="6" y="6" width="22.4439" height="22.4439" fill="#D9D9D9"/>
</mask>
<g mask="url(#mask0_189_665)">
<path d="M17.222 25.6229L16.1309 24.6409C14.5048 23.1603 13.1618 21.8822 12.102 20.8068C11.0421 19.7313 10.1979 18.7689 9.56932 17.9195C8.94058 17.07 8.50027 16.2973 8.2484 15.6012C7.99637 14.905 7.87036 14.1984 7.87036 13.4814C7.87036 12.0579 8.34831 10.8682 9.3042 9.91211C10.2603 8.95622 11.4448 8.47827 12.8578 8.47827C13.7204 8.47827 14.5257 8.67567 15.2738 9.07046C16.022 9.46542 16.6713 10.0317 17.222 10.7694C17.835 10.0006 18.5078 9.42645 19.2403 9.04709C19.9729 8.66788 20.7548 8.47827 21.5862 8.47827C22.9992 8.47827 24.1838 8.95622 25.1398 9.91211C26.0957 10.8682 26.5736 12.0579 26.5736 13.4814C26.5736 14.1984 26.4476 14.905 26.1956 15.6012C25.9437 16.2973 25.5034 17.07 24.8747 17.9195C24.2461 18.7689 23.4019 19.7313 22.342 20.8068C21.2822 21.8822 19.9392 23.1603 18.3131 24.6409L17.222 25.6229Z" fill="#8B8B8B"/>
</g>
</svg>
