<svg width="35" height="35" viewBox="0 0 35 35" fill="none" xmlns="http://www.w3.org/2000/svg">
<g clip-path="url(#clip0_242_436)">
<path fill-rule="evenodd" clip-rule="evenodd" d="M8.2 12.8123C6.55566 12.8123 4.97866 13.5996 3.81594 15.0011C2.65321 16.4026 2 18.3034 2 20.2854C2 20.2854 2 35.2316 17.5 35.2316C33 35.2316 33 20.2854 33 20.2854C33 18.3034 32.3468 16.4026 31.1841 15.0011C30.0213 13.5996 28.4443 12.8123 26.8 12.8123L8.2 12.8123Z" fill="#040078"/>
<path d="M18.2496 0.128876C19.2645 0.646122 20.2282 1.59414 20.9398 2.69429C21.6461 3.78803 22.2149 5.20686 22.2149 6.71696C22.2149 9.6635 19.9033 11.2104 18.0407 11.2104C16.6079 11.2104 15.2628 10.0831 14.5997 8.66264C14.2151 7.85924 14.0608 6.92902 14.1603 6.01235C14.2748 5.01629 14.7007 4.09229 15.403 3.31883C15.7601 2.92649 15.961 2.65586 16.0957 2.39163C16.2197 2.14982 16.3222 1.84716 16.3869 1.35553C16.4185 1.11439 16.4962 0.885034 16.6138 0.684989C16.7315 0.484945 16.8861 0.319503 17.0658 0.201305C17.2456 0.0831068 17.4456 0.0152791 17.6508 0.00300357C17.856 -0.00927193 18.0608 0.0343299 18.2496 0.130477" fill="#040078"/>
</g>
<defs>
<clipPath id="clip0_242_436">
<rect width="35" height="35" fill="white"/>
</clipPath>
</defs>
</svg>
