<svg width="28" height="36" viewBox="0 0 28 36" fill="none" xmlns="http://www.w3.org/2000/svg">
<path fill-rule="evenodd" clip-rule="evenodd" d="M6.00835 13.3164C4.56989 13.3164 3.19036 14.1038 2.17322 15.5052C1.15608 16.9067 0.584656 18.8075 0.584656 20.7895C0.584656 20.7895 0.584657 35.7357 14.1439 35.7357C27.7031 35.7357 27.7031 20.7895 27.7031 20.7895C27.7031 18.8075 27.1317 16.9067 26.1145 15.5052C25.0974 14.1038 23.7179 13.3164 22.2794 13.3164L6.00835 13.3164Z" fill="#040078"/>
<path d="M14.7998 0.633026C15.6876 1.15027 16.5307 2.09829 17.1532 3.19844C17.771 4.29218 18.2686 5.71101 18.2686 7.22111C18.2686 10.1677 16.2465 11.7146 14.6171 11.7146C13.3637 11.7146 12.187 10.5872 11.6069 9.16679C11.2705 8.36339 11.1356 7.43317 11.2225 6.5165C11.3227 5.52044 11.6953 4.59644 12.3096 3.82298C12.6221 3.43064 12.7978 3.16001 12.9157 2.89578C13.0241 2.65397 13.1137 2.35131 13.1703 1.85968C13.198 1.61854 13.266 1.38918 13.3689 1.18914C13.4718 0.989095 13.6071 0.823654 13.7643 0.705455C13.9215 0.587257 14.0965 0.519429 14.276 0.507154C14.4555 0.494878 14.6346 0.53848 14.7998 0.634628" fill="#040078"/>
</svg>
