<svg width="34" height="34" viewBox="0 0 34 34" fill="none" xmlns="http://www.w3.org/2000/svg">
<circle cx="17" cy="17" r="17" fill="#D9D9D9"/>
<path d="M12.269 27.4655C11.7434 27.4655 11.2946 27.2784 10.9226 26.9042C10.5508 26.5298 10.3649 26.0799 10.3649 25.5545C10.3649 25.0288 10.5521 24.58 10.9265 24.2081C11.3007 23.8363 11.7506 23.6503 12.2762 23.6503C12.8018 23.6503 13.2505 23.8375 13.6223 24.2119C13.9941 24.5861 14.1801 25.036 14.1801 25.5616C14.1801 26.0872 13.993 26.5359 13.6188 26.9078C13.2444 27.2796 12.7945 27.4655 12.269 27.4655ZM22.4884 27.4655C21.9627 27.4655 21.514 27.2784 21.142 26.9042C20.7702 26.5298 20.5842 26.0799 20.5842 25.5545C20.5842 25.0288 20.7714 24.58 21.1458 24.2081C21.52 23.8363 21.9699 23.6503 22.4955 23.6503C23.0211 23.6503 23.4698 23.8375 23.8417 24.2119C24.2135 24.5861 24.3994 25.036 24.3994 25.5616C24.3994 26.0872 24.2123 26.5359 23.8381 26.9078C23.4637 27.2796 23.0138 27.4655 22.4884 27.4655ZM10.2627 9.07069H25.3204C25.7118 9.07069 26.0096 9.24817 26.2138 9.60312C26.4179 9.9579 26.4206 10.3141 26.222 10.6718L22.7132 16.9907C22.5258 17.3201 22.28 17.5813 21.9756 17.7742C21.6712 17.9672 21.338 18.0637 20.9759 18.0637H13.2774L11.9489 20.5163H24.3994V22.2196H12.1022C11.3698 22.2196 10.8333 21.9486 10.4927 21.4064C10.152 20.8641 10.1492 20.2836 10.4842 19.6648L12.034 16.8205L8.21887 8.74725H6.20898V7.04395H9.30902L10.2627 9.07069Z" fill="#8B8B8B"/>
</svg>
