<svg width="34" height="34" viewBox="0 0 34 34" fill="none" xmlns="http://www.w3.org/2000/svg">
<circle cx="17" cy="17" r="17" fill="#D9D9D9"/>
<path d="M14.795 20.6481L20.8999 16.5556L14.795 12.463V20.6481ZM13.5501 26V24.1111H9.50007C9.09508 24.1111 8.74378 23.955 8.44618 23.6429C8.14873 23.3306 8 22.962 8 22.537V10.5742C8 10.1492 8.14873 9.78051 8.44618 9.46821C8.74378 9.15607 9.09508 9 9.50007 9H24.4999C24.9049 9 25.2562 9.15607 25.5538 9.46821C25.8513 9.78051 26 10.1492 26 10.5742V22.537C26 22.962 25.8513 23.3306 25.5538 23.6429C25.2562 23.955 24.9049 24.1111 24.4999 24.1111H20.4499V26H13.5501Z" fill="#8B8B8B"/>
</svg>
