<svg width="34" height="34" viewBox="0 0 34 34" fill="none" xmlns="http://www.w3.org/2000/svg">
<circle cx="17" cy="17" r="17" fill="#D9D9D9"/>
<mask id="mask0_189_647" style="mask-type:alpha" maskUnits="userSpaceOnUse" x="5" y="5" width="24" height="24">
<rect x="5" y="5" width="23.8596" height="23.8596" fill="#D9D9D9"/>
</mask>
<g mask="url(#mask0_189_647)">
<path d="M8.64528 25.8772C8.19792 25.8772 7.80987 25.7129 7.48113 25.3843C7.15256 25.0556 6.98828 24.6675 6.98828 24.2202V19.7301H14.4611V21.3868H19.4318V19.7301H26.8713V24.2202C26.8713 24.6675 26.707 25.0556 26.3785 25.3843C26.0497 25.7129 25.6617 25.8772 25.2143 25.8772H8.64528ZM16.1178 19.7301V18.0731H17.7748V19.7301H16.1178ZM6.98828 18.0731V12.6219C6.98828 12.1745 7.15256 11.7865 7.48113 11.4577C7.80987 11.1292 8.19792 10.9649 8.64528 10.9649H12.9532V8.64528C12.9532 8.19792 13.1175 7.80987 13.446 7.48113C13.7748 7.15257 14.1628 6.98828 14.6102 6.98828H19.2494C19.6968 6.98828 20.0848 7.15257 20.4136 7.48113C20.7421 7.80987 20.9064 8.19792 20.9064 8.64528V10.9649H25.2143C25.6617 10.9649 26.0497 11.1292 26.3785 11.4577C26.707 11.7865 26.8713 12.1745 26.8713 12.6219V18.0731H19.4318V16.4161H14.4611V18.0731H6.98828ZM14.6102 10.9649H19.2494V8.64528H14.6102V10.9649Z" fill="#8B8B8B"/>
</g>
</svg>
