<svg width="33" height="23" viewBox="0 0 33 23" fill="none" xmlns="http://www.w3.org/2000/svg">
<path d="M3.4412 23C2.29408 23 1.4 22.6053 0.758974 21.8159C0.117678 21.0262 -0.11722 19.988 0.0542798 18.7011L1.92371 5.42143C2.14967 3.90644 2.83838 2.62405 3.98984 1.57427C5.1413 0.524757 6.46657 0 7.96564 0H25.0616C26.5607 0 27.8859 0.524757 29.0374 1.57427C30.1889 2.62405 30.8774 3.90644 31.1031 5.42143L32.9457 18.7011C33.1172 19.988 32.8823 21.0262 32.241 21.8159C31.6 22.6053 30.7059 23 29.5588 23C28.9538 23 28.4255 22.8973 27.9738 22.692C27.5225 22.4866 27.1296 22.2151 26.7953 21.8775L22.7585 17.7975H10.2415L6.20471 21.8775C5.87038 22.2151 5.47753 22.4866 5.02616 22.692C4.57451 22.8973 4.0462 23 3.4412 23ZM25.1697 13.1429C25.6124 13.1429 25.994 12.9809 26.3145 12.657C26.635 12.3328 26.7953 11.9471 26.7953 11.5C26.7953 11.0529 26.635 10.6672 26.3145 10.343C25.994 10.0191 25.6124 9.85714 25.1697 9.85714C24.7273 9.85714 24.3458 10.0191 24.0253 10.343C23.7045 10.6672 23.5441 11.0529 23.5441 11.5C23.5441 11.9471 23.7045 12.3328 24.0253 12.657C24.3458 12.9809 24.7273 13.1429 25.1697 13.1429ZM21.7832 7.94034C22.2256 7.94034 22.6072 7.77838 22.928 7.45446C23.2485 7.13055 23.4088 6.74489 23.4088 6.29748C23.4088 5.85035 23.2485 5.46483 22.928 5.14091C22.6072 4.81672 22.2256 4.65463 21.7832 4.65463C21.3407 4.65463 20.9591 4.81672 20.6384 5.14091C20.3178 5.46483 20.1576 5.85035 20.1576 6.29748C20.1576 6.74489 20.3178 7.13055 20.6384 7.45446C20.9591 7.77838 21.3407 7.94034 21.7832 7.94034ZM9.32016 13.0061H11.4879V9.99391H14.468V7.80357H11.4879V4.7918H9.32016V7.80357H6.34004V9.99391H9.32016V13.0061Z" fill="#040078"/>
</svg>
