<svg width="37" height="37" viewBox="0 0 37 37" fill="none" xmlns="http://www.w3.org/2000/svg">
<path d="M10.0662 9.34363C11.5337 9.34363 12.8953 10.1001 14.0148 11.4314C14.8468 10.5388 15.8302 9.88826 16.8741 9.57056V6.31793C16.8741 5.51547 17.1928 4.74587 17.7603 4.17844C18.3277 3.61101 19.0973 3.29224 19.8998 3.29224H22.9255V6.31793H19.8998V9.57056C20.9436 9.88826 21.927 10.5388 22.759 11.4314C23.8786 10.1001 25.2401 9.34363 26.7076 9.34363C30.4897 9.34363 33.5154 14.4268 33.5154 20.69C33.5154 26.9532 30.4897 32.0364 26.7076 32.0364C25.2401 32.0364 23.8786 31.2799 22.759 29.9486C21.5336 31.2799 20.0208 32.0364 18.3869 32.0364C16.753 32.0364 15.2402 31.2799 14.0148 29.9486C12.8953 31.2799 11.5337 32.0364 10.0662 32.0364C6.28412 32.0364 3.25842 26.9532 3.25842 20.69C3.25842 14.4268 6.28412 9.34363 10.0662 9.34363Z" fill="#040078"/>
</svg>
