<svg width="35" height="35" viewBox="0 0 35 35" fill="none" xmlns="http://www.w3.org/2000/svg">
<path d="M7.875 7.94737C9.5725 7.94737 11.1475 8.81579 12.4425 10.3442C13.405 9.31947 14.5425 8.57263 15.75 8.20789V4.47368C15.75 3.55241 16.1188 2.66886 16.7751 2.01742C17.4315 1.36598 18.3217 1 19.25 1H22.75V4.47368H19.25V8.20789C20.4575 8.57263 21.595 9.31947 22.5575 10.3442C23.8525 8.81579 25.4275 7.94737 27.125 7.94737C31.5 7.94737 35 13.7832 35 20.9737C35 28.1642 31.5 34 27.125 34C25.4275 34 23.8525 33.1316 22.5575 31.6032C21.14 33.1316 19.39 34 17.5 34C15.61 34 13.86 33.1316 12.4425 31.6032C11.1475 33.1316 9.5725 34 7.875 34C3.5 34 0 28.1642 0 20.9737C0 13.7832 3.5 7.94737 7.875 7.94737Z" fill="#fff"/>
</svg>
