<svg width="35" height="34" viewBox="0 0 35 34" fill="none" xmlns="http://www.w3.org/2000/svg">
<path d="M12.1206 8.67545H4.48008L4.31976 8.68389C4.0861 8.71081 3.86292 8.79591 3.67065 8.93139C3.47838 9.06688 3.32317 9.24842 3.21921 9.45941C3.11525 9.6704 3.06588 9.90409 3.0756 10.1391C3.08533 10.3741 3.15384 10.6029 3.27487 10.8046L7.05785 17.1133L3.27487 23.422L3.19893 23.5627C3.10147 23.777 3.05936 24.0123 3.07647 24.2471C3.09358 24.4819 3.16937 24.7086 3.29687 24.9065C3.42437 25.1044 3.59951 25.2671 3.80624 25.3798C4.01297 25.4924 4.24466 25.5513 4.48008 25.5512H12.122L15.9317 31.8993L16.0357 32.0511C16.1772 32.2289 16.3596 32.3698 16.5673 32.4617C16.7751 32.5536 17.002 32.5938 17.2287 32.5789C17.4553 32.5639 17.675 32.4943 17.8689 32.376C18.0628 32.2576 18.2252 32.094 18.3421 31.8993L22.1504 25.5512H29.7937L29.954 25.5427C30.1876 25.5158 30.4108 25.4307 30.6031 25.2952C30.7954 25.1598 30.9506 24.9782 31.0545 24.7672C31.1585 24.5562 31.2079 24.3225 31.1981 24.0875C31.1884 23.8525 31.1199 23.6237 30.9989 23.422L27.2145 17.1133L30.9989 10.8046L31.0748 10.664C31.1723 10.4497 31.2144 10.2143 31.1973 9.97955C31.1802 9.74475 31.1044 9.51801 30.9769 9.32011C30.8494 9.1222 30.6742 8.95948 30.4675 8.84685C30.2608 8.73421 30.0291 8.67528 29.7937 8.67545H22.1518L18.3421 2.32737C18.2171 2.11944 18.0404 1.9474 17.8292 1.82796C17.618 1.70852 17.3795 1.64575 17.1369 1.64575C16.8943 1.64575 16.6558 1.70852 16.4446 1.82796C16.2334 1.9474 16.0567 2.11944 15.9317 2.32737L12.1206 8.67545Z" fill="#040078"/>
</svg>
