<svg width="35" height="35" viewBox="0 0 35 35" fill="none" xmlns="http://www.w3.org/2000/svg">
<path d="M11.9715 7.95314H3.55101L3.37432 7.96268C3.1168 7.99314 2.87084 8.08941 2.65894 8.2427C2.44704 8.39598 2.27598 8.60137 2.16141 8.84008C2.04684 9.07878 1.99242 9.34318 2.00314 9.60905C2.01386 9.87493 2.08937 10.1338 2.22276 10.362L6.39195 17.4994L2.22276 24.6368L2.13906 24.796C2.03165 25.0384 1.98524 25.3046 2.0041 25.5703C2.02296 25.8359 2.10648 26.0925 2.24699 26.3164C2.38751 26.5403 2.58054 26.7244 2.80837 26.8518C3.03621 26.9792 3.29156 27.0459 3.55101 27.0457H11.9731L16.1717 34.2277L16.2864 34.3995C16.4423 34.6006 16.6433 34.76 16.8723 34.864C17.1012 34.968 17.3513 35.0135 17.6012 34.9966C17.851 34.9797 18.0931 34.9009 18.3068 34.767C18.5205 34.6331 18.6994 34.448 18.8283 34.2277L23.0253 27.0457H31.449L31.6257 27.0361C31.8832 27.0057 32.1292 26.9094 32.3411 26.7561C32.553 26.6028 32.724 26.3975 32.8386 26.1587C32.9532 25.92 33.0076 25.6557 32.9969 25.3898C32.9861 25.1239 32.9106 24.865 32.7772 24.6368L28.6065 17.4994L32.7772 10.362L32.8609 10.2029C32.9683 9.96043 33.0148 9.69418 32.9959 9.42854C32.977 9.1629 32.8935 8.90637 32.753 8.68247C32.6125 8.45858 32.4195 8.27447 32.1916 8.14704C31.9638 8.01962 31.7084 7.95294 31.449 7.95314H23.0269L18.8283 0.771154C18.6905 0.535914 18.4957 0.34127 18.263 0.206143C18.0302 0.0710151 17.7674 0 17.5 0C17.2326 0 16.9698 0.0710151 16.737 0.206143C16.5043 0.34127 16.3095 0.535914 16.1717 0.771154L11.9715 7.95314Z" fill="#040078"/>
</svg>
