<svg width="34" height="34" viewBox="0 0 34 34" fill="none" xmlns="http://www.w3.org/2000/svg">
<circle cx="17" cy="17" r="17" fill="#D9D9D9"/>
<mask id="mask0_189_684" style="mask-type:alpha" maskUnits="userSpaceOnUse" x="5" y="4" width="25" height="25">
<rect x="5.36841" y="4.77197" width="23.8596" height="23.8596" fill="#D9D9D9"/>
</mask>
<g mask="url(#mask0_189_684)">
<path d="M8 16.5857V11.5316C8 11.1181 8.14951 10.7594 8.44854 10.4556C8.74771 10.1519 9.10087 10 9.50801 10H24.5872C24.9944 10 25.3475 10.1519 25.6467 10.4556C25.9457 10.7594 26.0952 11.1181 26.0952 11.5316V17.9946C25.8389 17.8771 25.5788 17.7891 25.3149 17.7304C25.051 17.6717 24.7833 17.6424 24.5119 17.6424C24.155 17.6424 23.8031 17.6934 23.4563 17.7954C23.1094 17.8976 22.7828 18.0431 22.4762 18.2319C22.3103 18.1247 22.142 18.0354 21.9711 17.964C21.8001 17.8925 21.6166 17.8338 21.4206 17.7878V16.5857H18.4274L16.8214 13.3235C16.7561 13.1907 16.6606 13.0962 16.5348 13.04C16.4092 12.984 16.2786 12.9559 16.1429 12.9559C16.0071 12.9559 15.8765 12.984 15.7509 13.04C15.6251 13.0962 15.5296 13.1907 15.4643 13.3235L12.5238 19.3116L11.3929 16.9992C11.3276 16.8613 11.232 16.758 11.1063 16.689C10.9807 16.6201 10.85 16.5857 10.7143 16.5857H8ZM9.50801 24.7027C9.10087 24.7027 8.74771 24.5509 8.44854 24.2471C8.14951 23.9433 8 23.5846 8 23.1711V18.117H10.2393L11.8452 21.3792C11.9105 21.517 12.0061 21.6204 12.1318 21.6893C12.2574 21.7583 12.3881 21.7927 12.5238 21.7927C12.6595 21.7927 12.7902 21.7583 12.9158 21.6893C13.0416 21.6204 13.1371 21.517 13.2024 21.3792L16.1429 15.3911L17.2738 17.7035C17.3391 17.8313 17.4283 17.9296 17.5414 17.9985C17.6545 18.0674 17.7764 18.1069 17.9071 18.117H18.7063C18.0328 18.4336 17.4875 18.911 17.0702 19.5492C16.653 20.1872 16.4444 20.9096 16.4444 21.7162C16.4444 22.3595 16.5537 22.9045 16.7723 23.3512C16.991 23.7978 17.3165 24.2483 17.7488 24.7027H9.50801ZM20.4405 19.1892C20.8476 19.1892 21.2246 19.2811 21.5714 19.4649C21.9183 19.6486 22.2198 19.9167 22.4762 20.2689C22.7325 19.9167 23.0341 19.6486 23.381 19.4649C23.7278 19.2811 24.1048 19.1892 24.5119 19.1892C25.2056 19.1892 25.7937 19.4342 26.2762 19.9243C26.7587 20.4144 27 21.0117 27 21.7162C27 22.2676 26.804 22.7998 26.4119 23.3128C26.0198 23.8259 25.1603 24.6568 23.8333 25.8054L22.4762 27L21.119 25.8054C19.7921 24.6568 18.9325 23.8259 18.5405 23.3128C18.1484 22.7998 17.9524 22.2676 17.9524 21.7162C17.9524 21.0117 18.1937 20.4144 18.6762 19.9243C19.1587 19.4342 19.7468 19.1892 20.4405 19.1892Z" fill="#8B8B8B"/>
</g>
</svg>
