<svg width="35" height="35" viewBox="0 0 35 35" fill="none" xmlns="http://www.w3.org/2000/svg">
<g clip-path="url(#clip0_350_2353)">
<path d="M31.2107 25.6654C31.2107 30.8654 27.0257 34.9988 21.7607 34.9988H13.6607C8.39569 34.9988 4.21069 30.8654 4.21069 25.6654V18.9988H31.2107V25.6654Z" fill="#040078"/>
<path d="M15.0428 6.85816C15.0594 6.87673 15.0726 6.8988 15.0816 6.9231C15.0906 6.9474 15.0952 6.97345 15.0952 6.99976C15.0952 7.02606 15.0906 7.05211 15.0816 7.07641C15.0726 7.10071 15.0594 7.12278 15.0428 7.14136C14.9492 7.24576 14.5249 7.70456 13.9703 8.13856C13.4236 8.56656 12.7147 8.99976 12.0594 8.99976C11.4237 8.99976 10.9291 8.76896 10.5934 8.39336C10.2588 8.01936 10.0952 7.51616 10.0952 6.99976C10.0952 6.48336 10.2588 5.98016 10.5934 5.60616C10.9291 5.23056 11.4233 4.99976 12.0594 4.99976C12.7147 4.99976 13.4236 5.43296 13.97 5.86096C14.3511 6.16018 14.7099 6.49368 15.0428 6.85816Z" fill="#040078"/>
<path d="M20.1477 7.14111C20.131 7.12253 20.1179 7.10046 20.1089 7.07617C20.0998 7.05187 20.0952 7.02582 20.0952 6.99951C20.0952 6.9732 20.0998 6.94716 20.1089 6.92286C20.1179 6.89856 20.131 6.87649 20.1477 6.85791C20.2412 6.75351 20.6655 6.29471 21.2201 5.86071C21.7669 5.43271 22.4757 4.99951 23.1311 4.99951C23.7667 4.99951 24.2613 5.23031 24.597 5.60591C24.9317 5.97991 25.0952 6.48311 25.0952 6.99951C25.0952 7.51591 24.9317 8.01911 24.597 8.39311C24.2613 8.76871 23.7671 8.99951 23.1311 8.99951C22.4757 8.99951 21.7669 8.56631 21.2205 8.13831C20.8393 7.83909 20.4805 7.50559 20.1477 7.14111Z" fill="#040078"/>
<path d="M17.7722 6.92631C17.749 6.94959 17.7214 6.96806 17.691 6.98067C17.6607 6.99327 17.6281 6.99976 17.5952 6.99976C17.5623 6.99976 17.5298 6.99327 17.4994 6.98067C17.469 6.96806 17.4414 6.94959 17.4182 6.92631C17.2877 6.79532 16.7142 6.20136 16.1717 5.42491C15.6367 4.65946 15.0952 3.66702 15.0952 2.74958C15.0952 1.85964 15.3837 1.16718 15.8532 0.697212C16.3207 0.228741 16.9497 -0.000244342 17.5952 -0.000244399C18.2407 -0.000244455 18.8697 0.228741 19.3372 0.697211C19.8067 1.16718 20.0952 1.85914 20.0952 2.74958C20.0952 3.66702 19.5537 4.65946 19.0187 5.42441C18.6447 5.95806 18.2278 6.46036 17.7722 6.92631Z" fill="#040078"/>
<path d="M28.2107 16.9998H7.21069C8.12314 14.631 13.5018 11.3525 16.1871 9.83375C17.1381 9.2959 18.289 9.28787 19.2471 9.81287C22.0017 11.3223 27.5559 14.6201 28.2107 16.9998Z" fill="#040078"/>
</g>
<defs>
<clipPath id="clip0_350_2353">
<rect width="35" height="35" fill="white"/>
</clipPath>
</defs>
</svg>
