<svg width="34" height="34" viewBox="0 0 34 34" fill="none" xmlns="http://www.w3.org/2000/svg">
<circle cx="17" cy="17" r="17" fill="#D9D9D9"/>
<path d="M16 19.0006V27.0006H12C11.2044 27.0006 10.4413 26.6845 9.87868 26.1219C9.31607 25.5593 9 24.7962 9 24.0006V20.0006C9 19.7354 9.10536 19.481 9.29289 19.2935C9.48043 19.1059 9.73478 19.0006 10 19.0006H16ZM24 19.0006C24.2652 19.0006 24.5196 19.1059 24.7071 19.2935C24.8946 19.481 25 19.7354 25 20.0006V24.0006C25 24.7962 24.6839 25.5593 24.1213 26.1219C23.5587 26.6845 22.7956 27.0006 22 27.0006H18V19.0006H24ZM21.5 7.00059C22.0905 7.00047 22.6715 7.14975 23.1888 7.43455C23.706 7.71936 24.1429 8.13041 24.4586 8.62945C24.7743 9.1285 24.9586 9.6993 24.9943 10.2887C25.03 10.8782 24.9161 11.4671 24.663 12.0006H25C25.5304 12.0006 26.0391 12.2113 26.4142 12.5864C26.7893 12.9614 27 13.4702 27 14.0006V15.0006C27 15.531 26.7893 16.0397 26.4142 16.4148C26.0391 16.7899 25.5304 17.0006 25 17.0006H18V12.0006H16V17.0006H9C8.46957 17.0006 7.96086 16.7899 7.58579 16.4148C7.21071 16.0397 7 15.531 7 15.0006V14.0006C7 13.4702 7.21071 12.9614 7.58579 12.5864C7.96086 12.2113 8.46957 12.0006 9 12.0006H9.337C9.11488 11.5317 8.99977 11.0194 9 10.5006C9 8.56759 10.567 7.00059 12.483 7.00059C14.238 6.97059 15.795 8.09259 16.864 9.93459L17 10.1776C18.033 8.26359 19.56 7.06359 21.291 7.00259L21.5 7.00059ZM12.5 9.00059C12.1022 9.00059 11.7206 9.15862 11.4393 9.43993C11.158 9.72123 11 10.1028 11 10.5006C11 10.8984 11.158 11.2799 11.4393 11.5612C11.7206 11.8426 12.1022 12.0006 12.5 12.0006H15.643C14.902 10.0956 13.694 8.98059 12.5 9.00059ZM21.483 9.00059C20.303 8.98059 19.098 10.0966 18.357 12.0006H21.5C21.8978 11.9983 22.2785 11.8381 22.5582 11.5552C22.8379 11.2723 22.9938 10.8899 22.9915 10.4921C22.9892 10.0943 22.829 9.71363 22.5462 9.43392C22.2633 9.15421 21.8808 8.99833 21.483 9.00059Z" fill="#8B8B8B"/>
</svg>
