<svg width="35" height="35" viewBox="0 0 35 35" fill="none" xmlns="http://www.w3.org/2000/svg">
<g clip-path="url(#clip0_350_2349)">
<path fill-rule="evenodd" clip-rule="evenodd" d="M17.5 0C17.9641 0 18.4092 0.184374 18.7374 0.512563C19.0656 0.840752 19.25 1.28587 19.25 1.75V3.5H21C21.4641 3.5 21.9092 3.68437 22.2374 4.01256C22.5656 4.34075 22.75 4.78587 22.75 5.25H24.5C24.9411 5.25005 25.3659 5.41665 25.6894 5.71646C26.0129 6.01628 26.2112 6.4272 26.2447 6.867C27.4234 7.33323 28.5506 7.92028 29.6082 8.61875C32.7705 10.7275 35 13.8337 35 17.5C35 21.1662 32.7705 24.2725 29.6082 26.3812C27.461 27.8127 24.8062 28.8487 21.875 29.3685V33.25C21.875 33.7141 21.6906 34.1592 21.3624 34.4874C21.0342 34.8156 20.5891 35 20.125 35C19.6609 35 19.2158 34.8156 18.8876 34.4874C18.5594 34.1592 18.375 33.7141 18.375 33.25V29.75H16.625V33.25C16.625 33.7141 16.4406 34.1592 16.1124 34.4874C15.7842 34.8156 15.3391 35 14.875 35C14.4109 35 13.9657 34.8156 13.6376 34.4874C13.3094 34.1592 13.125 33.7141 13.125 33.25V29.3685C10.1937 28.8487 7.539 27.811 5.39175 26.3812C2.2295 24.2725 0 21.1662 0 17.5C0 13.8337 2.2295 10.7275 5.39175 8.61875C6.44943 7.92028 7.57661 7.33323 8.75525 6.867C8.78877 6.4272 8.98713 6.01628 9.31063 5.71646C9.63414 5.41665 10.0589 5.25005 10.5 5.25H12.25C12.25 4.78587 12.4344 4.34075 12.7626 4.01256C13.0907 3.68437 13.5359 3.5 14 3.5H15.75V1.75C15.75 1.28587 15.9344 0.840752 16.2626 0.512563C16.5907 0.184374 17.0359 0 17.5 0ZM10.9795 8.75L10.976 8.7535C9.1105 10.7345 7 13.776 7 17.5C7 21.2257 9.1105 24.2655 10.976 26.2465L10.9795 26.25H16.2855C15.2896 25.5401 14.3648 24.7354 13.524 23.8472C11.8895 22.1095 10.5 19.8992 10.5 17.5C10.5 15.1007 11.8895 12.8905 13.524 11.1527C14.3648 10.2646 15.2896 9.45994 16.2855 8.75H10.9795ZM18.7145 8.75C19.7104 9.45994 20.6352 10.2646 21.476 11.1527C23.1105 12.8905 24.5 15.1007 24.5 17.5C24.5 19.8992 23.1105 22.1095 21.476 23.8472C20.6352 24.7354 19.7104 25.5401 18.7145 26.25H24.0205L24.024 26.2465C25.8895 24.2655 28 21.224 28 17.5C28 13.7742 25.8895 10.7345 24.024 8.7535L24.0205 8.75H18.7145Z" fill="#040078"/>
</g>
<defs>
<clipPath id="clip0_350_2349">
<rect width="35" height="35" fill="white"/>
</clipPath>
</defs>
</svg>
