<svg width="34" height="34" viewBox="0 0 34 34" fill="none" xmlns="http://www.w3.org/2000/svg">
<circle cx="17" cy="17" r="17" fill="#D9D9D9"/>
<path d="M28.7008 13.5109L26.9993 11.8096C26.5954 11.4058 25.9423 11.4058 25.5427 11.8096L15.2519 22.0991L10.4653 17.3088C10.0614 16.9049 9.40834 16.9049 9.00874 17.3088L7.30292 19.0144C6.89903 19.4182 6.89903 20.0713 7.30292 20.4751L14.5215 27.6971C14.9254 28.101 15.5785 28.101 15.9781 27.6971L28.6965 14.9716C29.1004 14.5635 29.1004 13.9105 28.7008 13.5109ZM14.7664 18.0649C15.0328 18.3356 15.4711 18.3356 15.7375 18.0649L24.6748 9.12015C24.9412 8.84948 24.9412 8.41556 24.6748 8.1492L22.7326 6.203C22.4662 5.93233 22.028 5.93233 21.7616 6.203L15.2519 12.7118L12.8715 10.3274C12.6051 10.0567 12.1669 10.0567 11.9005 10.3274L9.95403 12.2736C9.68763 12.5443 9.68763 12.9782 9.95403 13.2445L14.7664 18.0649Z" fill="#8B8B8B"/>
</svg>
