<svg width="31" height="31" viewBox="0 0 31 31" fill="none" xmlns="http://www.w3.org/2000/svg">
<path d="M4.13086 27.0967L9.67556 11.2847L20.1117 22.0071L4.13086 27.0967Z" fill="#040078" stroke="#040078" stroke-width="2" stroke-linejoin="round"/>
<path d="M14.9978 12.3942L18.194 9.19801C19.8986 7.49339 20.1117 6.00185 18.8332 4.72339M18.8332 16.2296L22.0294 13.0334C24.1601 10.9026 26.2909 10.9026 28.4217 13.0334" stroke="#040078" stroke-width="2" stroke-linecap="round" stroke-linejoin="round"/>
<path d="M13.0801 4.7235C13.4192 4.7235 13.7444 4.58881 13.9841 4.34905C14.2239 4.10929 14.3586 3.78411 14.3586 3.44504C14.3586 3.10597 14.2239 2.78079 13.9841 2.54103C13.7444 2.30127 13.4192 2.16658 13.0801 2.16658C12.741 2.16658 12.4158 2.30127 12.1761 2.54103C11.9363 2.78079 11.8016 3.10597 11.8016 3.44504C11.8016 3.78411 11.9363 4.10929 12.1761 4.34905C12.4158 4.58881 12.741 4.7235 13.0801 4.7235ZM27.1432 4.08427C27.4823 4.08427 27.8075 3.94958 28.0472 3.70982C28.287 3.47006 28.4217 3.14488 28.4217 2.80581C28.4217 2.46674 28.287 2.14156 28.0472 1.9018C27.8075 1.66204 27.4823 1.52734 27.1432 1.52734C26.8041 1.52734 26.479 1.66204 26.2392 1.9018C25.9994 2.14156 25.8647 2.46674 25.8647 2.80581C25.8647 3.14488 25.9994 3.47006 26.2392 3.70982C26.479 3.94958 26.8041 4.08427 27.1432 4.08427ZM27.1432 18.7866C27.4823 18.7866 27.8075 18.6519 28.0472 18.4122C28.287 18.1724 28.4217 17.8472 28.4217 17.5081C28.4217 17.1691 28.287 16.8439 28.0472 16.6041C27.8075 16.3644 27.4823 16.2297 27.1432 16.2297C26.8041 16.2297 26.479 16.3644 26.2392 16.6041C25.9994 16.8439 25.8647 17.1691 25.8647 17.5081C25.8647 17.8472 25.9994 18.1724 26.2392 18.4122C26.479 18.6519 26.8041 18.7866 27.1432 18.7866ZM25.2255 24.5397C25.5646 24.5397 25.8898 24.405 26.1295 24.1652C26.3693 23.9255 26.504 23.6003 26.504 23.2612C26.504 22.9222 26.3693 22.597 26.1295 22.3572C25.8898 22.1175 25.5646 21.9828 25.2255 21.9828C24.8864 21.9828 24.5613 22.1175 24.3215 22.3572C24.0817 22.597 23.947 22.9222 23.947 23.2612C23.947 23.6003 24.0817 23.9255 24.3215 24.1652C24.5613 24.405 24.8864 24.5397 25.2255 24.5397Z" fill="#040078"/>
</svg>
