<svg width="35" height="35" viewBox="0 0 35 35" fill="none" xmlns="http://www.w3.org/2000/svg">
<g clip-path="url(#clip0_242_447)">
<path d="M1.10303 33.8966L8.45356 12.9348L22.2886 27.1495L1.10303 33.8966Z" fill="#fff"/>
<path d="M8.21555 11.8575C8.58857 11.7751 8.97812 11.8919 9.24456 12.1656L23.0796 26.3799C23.3462 26.654 23.4515 27.0467 23.3587 27.4176C23.2658 27.7883 22.9879 28.0848 22.6238 28.2009L1.43811 34.9482C1.03968 35.0751 0.603621 34.9656 0.312126 34.6659C0.0206305 34.3658 -0.0762825 33.926 0.0621477 33.5313L7.41282 12.5697L7.46777 12.4393C7.61568 12.1451 7.88912 11.9296 8.21555 11.8575ZM2.87549 32.1726L20.2522 26.6396L8.90515 14.9801L2.87549 32.1726Z" fill="#fff"/>
<path d="M29.0681 12.0314C30.8762 12.0315 32.5525 12.9405 34.085 14.473C34.5158 14.9038 34.5157 15.6023 34.085 16.0332C33.6541 16.4641 32.9556 16.4641 32.5247 16.0332C31.2329 14.7413 30.0845 14.2382 29.0681 14.2381C28.0516 14.2381 26.9026 14.7411 25.6105 16.0332L21.3738 20.271C20.943 20.7016 20.2444 20.7015 19.8135 20.271C19.3827 19.8401 19.3827 19.1406 19.8135 18.7097L24.0502 14.473C25.5829 12.9403 27.2599 12.0314 29.0681 12.0314ZM19.8135 3.45667C20.2444 3.02587 20.9429 3.02581 21.3738 3.45667C22.4115 4.49443 22.9458 5.74409 22.7454 7.14709C22.5555 8.47622 21.7306 9.7436 20.5258 10.9485L16.2891 15.1863C15.8582 15.6169 15.1597 15.6169 14.7288 15.1863C14.298 14.7554 14.2981 14.057 14.7288 13.6261L18.9656 9.38828C20.0204 8.3334 20.4676 7.48276 20.5602 6.83461C20.6422 6.26042 20.4705 5.67383 19.8135 5.01688C19.3827 4.58599 19.3827 3.88755 19.8135 3.45667Z" fill="#fff"/>
<path d="M12.9668 4.23711C13.4163 4.23711 13.8474 4.05854 14.1652 3.7407C14.4831 3.42285 14.6617 2.99176 14.6617 2.54226C14.6617 2.09276 14.4831 1.66167 14.1652 1.34383C13.8474 1.02598 13.4163 0.847421 12.9668 0.847421C12.5173 0.847421 12.0862 1.02598 11.7684 1.34383C11.4505 1.66167 11.272 2.09276 11.272 2.54226C11.272 2.99176 11.4505 3.42285 11.7684 3.7407C12.0862 4.05854 12.5173 4.23711 12.9668 4.23711ZM31.6101 3.38968C32.0596 3.38968 32.4907 3.21112 32.8085 2.89328C33.1264 2.57543 33.3049 2.14434 33.3049 1.69484C33.3049 1.24534 33.1264 0.814252 32.8085 0.496408C32.4907 0.178563 32.0596 0 31.6101 0C31.1606 0 30.7295 0.178563 30.4116 0.496408C30.0938 0.814252 29.9152 1.24534 29.9152 1.69484C29.9152 2.14434 30.0938 2.57543 30.4116 2.89328C30.7295 3.21112 31.1606 3.38968 31.6101 3.38968ZM31.6101 22.8804C32.0596 22.8804 32.4907 22.7018 32.8085 22.384C33.1264 22.0661 33.3049 21.635 33.3049 21.1855C33.3049 20.736 33.1264 20.3049 32.8085 19.9871C32.4907 19.6692 32.0596 19.4907 31.6101 19.4907C31.1606 19.4907 30.7295 19.6692 30.4116 19.9871C30.0938 20.3049 29.9152 20.736 29.9152 21.1855C29.9152 21.635 30.0938 22.0661 30.4116 22.384C30.7295 22.7018 31.1606 22.8804 31.6101 22.8804ZM29.0678 30.5072C29.5173 30.5072 29.9484 30.3286 30.2663 30.0107C30.5841 29.6929 30.7627 29.2618 30.7627 28.8123C30.7627 28.3628 30.5841 27.9317 30.2663 27.6139C29.9484 27.296 29.5173 27.1175 29.0678 27.1175C28.6183 27.1175 28.1872 27.296 27.8694 27.6139C27.5515 27.9317 27.373 28.3628 27.373 28.8123C27.373 29.2618 27.5515 29.6929 27.8694 30.0107C28.1872 30.3286 28.6183 30.5072 29.0678 30.5072Z" fill="#fff"/>
</g>
<defs>
<clipPath id="clip0_242_447">
<rect width="35" height="35" fill="white"/>
</clipPath>
</defs>
</svg>
