<svg width="34" height="34" viewBox="0 0 34 34" fill="none" xmlns="http://www.w3.org/2000/svg">
<circle cx="17" cy="17" r="17" fill="#D9D9D9"/>
<path d="M9 26C8.45 26 7.97933 25.8043 7.588 25.413C7.19667 25.0217 7.00067 24.5507 7 24V10C7 9.45 7.196 8.97933 7.588 8.588C7.98 8.19667 8.45067 8.00067 9 8H25C25.55 8 26.021 8.196 26.413 8.588C26.805 8.98 27.0007 9.45067 27 10V24C27 24.55 26.8043 25.021 26.413 25.413C26.0217 25.805 25.5507 26.0007 25 26H9ZM12 22H22C22.2833 22 22.521 21.904 22.713 21.712C22.905 21.52 23.0007 21.2827 23 21C22.9993 20.7173 22.9033 20.48 22.712 20.288C22.5207 20.096 22.2833 20 22 20H12C11.7167 20 11.4793 20.096 11.288 20.288C11.0967 20.48 11.0007 20.7173 11 21C10.9993 21.2827 11.0953 21.5203 11.288 21.713C11.4807 21.9057 11.718 22.0013 12 22ZM12 18H14C14.2833 18 14.521 17.904 14.713 17.712C14.905 17.52 15.0007 17.2827 15 17V13C15 12.7167 14.904 12.4793 14.712 12.288C14.52 12.0967 14.2827 12.0007 14 12H12C11.7167 12 11.4793 12.096 11.288 12.288C11.0967 12.48 11.0007 12.7173 11 13V17C11 17.2833 11.096 17.521 11.288 17.713C11.48 17.905 11.7173 18.0007 12 18ZM18 18H22C22.2833 18 22.521 17.904 22.713 17.712C22.905 17.52 23.0007 17.2827 23 17C22.9993 16.7173 22.9033 16.48 22.712 16.288C22.5207 16.096 22.2833 16 22 16H18C17.7167 16 17.4793 16.096 17.288 16.288C17.0967 16.48 17.0007 16.7173 17 17C16.9993 17.2827 17.0953 17.5203 17.288 17.713C17.4807 17.9057 17.718 18.0013 18 18ZM18 14H22C22.2833 14 22.521 13.904 22.713 13.712C22.905 13.52 23.0007 13.2827 23 13C22.9993 12.7173 22.9033 12.48 22.712 12.288C22.5207 12.096 22.2833 12 22 12H18C17.7167 12 17.4793 12.096 17.288 12.288C17.0967 12.48 17.0007 12.7173 17 13C16.9993 13.2827 17.0953 13.5203 17.288 13.713C17.4807 13.9057 17.718 14.0013 18 14Z" fill="#8B8B8B"/>
</svg>
