<svg width="34" height="34" viewBox="0 0 34 34" fill="none" xmlns="http://www.w3.org/2000/svg">
<circle cx="17" cy="17" r="17" fill="#D9D9D9"/>
<path d="M18.1769 6C18.5394 6 18.8984 6.0701 19.2333 6.20631C19.5682 6.34251 19.8725 6.54215 20.1288 6.79382C20.3852 7.04549 20.5885 7.34427 20.7272 7.67309C20.866 8.00192 20.9374 8.35435 20.9374 8.71027L20.9362 9.29182H24.8824C25.1788 9.29182 25.4631 9.40743 25.6727 9.6132C25.8823 9.81898 26 10.0981 26 10.3891L25.9989 14.2285L24.289 14.2296C23.5885 14.2297 22.9143 14.4913 22.403 14.9614C21.8917 15.4314 21.5815 16.0747 21.5353 16.761L21.5297 16.9398V17.0057C21.5296 17.6936 21.7959 18.3558 22.2747 18.8581C22.7534 19.3603 23.4088 19.665 24.1079 19.7104L24.2901 19.7159L25.9989 19.7148L26 23.5597C26 23.8507 25.8823 24.1298 25.6727 24.3356C25.4631 24.5413 25.1788 24.6569 24.8824 24.6569L20.9362 24.6558V25.2352C20.9436 25.5956 20.8777 25.9539 20.7423 26.289C20.6069 26.6241 20.4048 26.9293 20.1478 27.1868C19.8908 27.4443 19.5841 27.6488 19.2456 27.7884C18.907 27.9281 18.5436 28 18.1764 28C17.8092 28 17.4457 27.9281 17.1072 27.7884C16.7687 27.6488 16.4619 27.4443 16.2049 27.1868C15.9479 26.9293 15.7458 26.6241 15.6104 26.289C15.475 25.9539 15.4091 25.5956 15.4165 25.2352V24.6558H11.4714C11.175 24.6558 10.8908 24.5402 10.6812 24.3345C10.4716 24.1287 10.3539 23.8496 10.3539 23.5586L10.3527 19.6841H9.76043C9.02832 19.6841 8.32619 19.3986 7.80851 18.8903C7.29083 18.382 7 17.6926 7 16.9738C7 16.255 7.29083 15.5657 7.80851 15.0574C8.32619 14.5491 9.02832 14.2636 9.76043 14.2636H10.3539V10.3891C10.3539 10.0981 10.4716 9.81898 10.6812 9.6132C10.8908 9.40743 11.175 9.29182 11.4714 9.29182H15.4165V8.71027C15.4165 7.99146 15.7073 7.30209 16.225 6.79382C16.7427 6.28555 17.4448 6 18.1769 6Z" fill="#8B8B8B"/>
</svg>
