<svg width="34" height="34" viewBox="0 0 34 34" fill="none" xmlns="http://www.w3.org/2000/svg">
<circle cx="17" cy="17" r="17" fill="#D9D9D9"/>
<path d="M12.5216 7.09662C11.0218 6.69441 9.4791 7.58473 9.08072 9.08422L7.09663 16.484C6.69435 17.9835 7.58485 19.526 9.08463 19.9282L16.4859 21.9119C17.9857 22.3141 19.5284 21.4238 19.9307 19.9243L21.9148 12.5245C22.3171 11.025 21.4266 9.48252 19.9268 9.08032L12.5216 7.09662ZM13.4199 15.129C13.3327 14.9868 13.2748 14.8285 13.2497 14.6635C13.2246 14.4986 13.2329 14.3303 13.2739 14.1685C13.3149 14.0068 13.388 13.8549 13.4887 13.7218C13.5894 13.5887 13.7157 13.4772 13.8602 13.3937C14.0047 13.3103 14.1645 13.2566 14.3301 13.2359C14.4957 13.2151 14.6638 13.2278 14.8245 13.2731C14.9851 13.3183 15.135 13.3953 15.2654 13.4995C15.3958 13.6036 15.504 13.7328 15.5837 13.8795C15.6709 14.0217 15.7288 14.18 15.7539 14.345C15.779 14.5099 15.7708 14.6783 15.7297 14.84C15.6887 15.0017 15.6157 15.1536 15.515 15.2867C15.4143 15.4198 15.2879 15.5313 15.1434 15.6148C14.9989 15.6982 14.8391 15.7519 14.6735 15.7726C14.5079 15.7934 14.3398 15.7807 14.1792 15.7354C14.0185 15.6902 13.8686 15.6132 13.7382 15.509C13.6078 15.4049 13.4996 15.2757 13.4199 15.129ZM10.0923 15.6093C10.2346 15.5221 10.3929 15.4642 10.5579 15.4392C10.7229 15.4141 10.8912 15.4223 11.053 15.4633C11.2148 15.5044 11.3667 15.5774 11.4998 15.6781C11.6329 15.7787 11.7445 15.9051 11.828 16.0495C11.9114 16.194 11.9651 16.3538 11.9858 16.5194C12.0066 16.6849 11.9939 16.853 11.9486 17.0136C11.9034 17.1742 11.8264 17.3241 11.7222 17.4545C11.618 17.5849 11.4888 17.693 11.3421 17.7727C11.1998 17.8599 11.0415 17.9178 10.8765 17.9428C10.7115 17.9679 10.5432 17.9597 10.3814 17.9187C10.2196 17.8776 10.0677 17.8046 9.93461 17.704C9.80151 17.6033 9.68993 17.477 9.60646 17.3325C9.52298 17.188 9.46929 17.0282 9.44856 16.8627C9.42784 16.6971 9.44049 16.529 9.48577 16.3684C9.53105 16.2078 9.60805 16.0579 9.71222 15.9275C9.81639 15.7972 9.94562 15.689 10.0923 15.6093ZM17.3178 19.3737C17.1755 19.4609 17.0172 19.5188 16.8522 19.5439C16.6872 19.5689 16.5189 19.5607 16.3571 19.5197C16.1953 19.4787 16.0434 19.4057 15.9103 19.305C15.7772 19.2043 15.6656 19.078 15.5822 18.9335C15.4987 18.789 15.445 18.6292 15.4243 18.4637C15.4035 18.2981 15.4162 18.1301 15.4615 17.9694C15.5068 17.8088 15.5837 17.6589 15.6879 17.5286C15.7921 17.3982 15.9213 17.29 16.068 17.2104C16.2103 17.1231 16.3686 17.0653 16.5336 17.0402C16.6986 17.0151 16.8669 17.0233 17.0287 17.0644C17.1905 17.1054 17.3424 17.1784 17.4755 17.2791C17.6086 17.3798 17.7202 17.5061 17.8036 17.6506C17.8871 17.7951 17.9408 17.9548 17.9615 18.1204C17.9823 18.286 17.9696 18.454 17.9243 18.6146C17.8791 18.7752 17.8021 18.9251 17.6979 19.0555C17.5937 19.1859 17.4645 19.2941 17.3178 19.3737ZM17.6693 11.2358C17.8116 11.1486 17.9699 11.0907 18.1349 11.0657C18.2999 11.0406 18.4683 11.0488 18.63 11.0898C18.7918 11.1309 18.9437 11.2039 19.0768 11.3045C19.2099 11.4052 19.3215 11.5315 19.405 11.676C19.4885 11.8205 19.5421 11.9803 19.5629 12.1458C19.5836 12.3114 19.5709 12.4795 19.5257 12.6401C19.4804 12.8007 19.4034 12.9506 19.2992 13.081C19.195 13.2113 19.0658 13.3195 18.9191 13.3992C18.7769 13.4864 18.6186 13.5443 18.4536 13.5693C18.2886 13.5944 18.1202 13.5862 17.9584 13.5452C17.7966 13.5041 17.6447 13.4311 17.5116 13.3304C17.3785 13.2298 17.267 13.1035 17.1835 12.959C17.1 12.8145 17.0463 12.6547 17.0256 12.4891C17.0049 12.3236 17.0175 12.1555 17.0628 11.9949C17.1081 11.8343 17.1851 11.6844 17.2893 11.554C17.3934 11.4237 17.5227 11.3155 17.6693 11.2358ZM12.9434 11.7981C12.8012 11.8854 12.6429 11.9432 12.4779 11.9683C12.3129 11.9934 12.1445 11.9852 11.9827 11.9441C11.821 11.9031 11.669 11.8301 11.5359 11.7294C11.4028 11.6287 11.2913 11.5024 11.2078 11.3579C11.1243 11.2134 11.0706 11.0537 11.0499 10.8881C11.0292 10.7226 11.0418 10.5545 11.0871 10.3939C11.1324 10.2333 11.2094 10.0834 11.3136 9.95301C11.4177 9.82263 11.547 9.71444 11.6936 9.63481C11.8359 9.54758 11.9942 9.48971 12.1592 9.46464C12.3242 9.43956 12.4926 9.44778 12.6543 9.48881C12.8161 9.52984 12.968 9.60285 13.1011 9.70353C13.2342 9.80421 13.3458 9.93052 13.4293 10.075C13.5128 10.2195 13.5664 10.3793 13.5872 10.5448C13.6079 10.7104 13.5953 10.8785 13.55 11.0391C13.5047 11.1997 13.4277 11.3496 13.3235 11.4799C13.2193 11.6103 13.0901 11.7185 12.9434 11.7981ZM23.3248 14.5043L21.739 20.4085C21.0673 22.9076 18.4973 24.3915 15.9977 23.7238L14.5018 23.3216V24.5009C14.5018 25.8793 15.6227 27 17.0015 27H24.5004C25.8791 27 27 25.8793 27 24.5009V17.0034C27 15.625 25.8791 14.5043 24.5004 14.5043H23.3248Z" fill="#8B8B8B"/>
</svg>
