<svg width="34" height="34" viewBox="0 0 34 34" fill="none" xmlns="http://www.w3.org/2000/svg">
<circle cx="17" cy="17" r="17" fill="#D9D9D9"/>
<path d="M12.595 18.406L16.13 21.942L14.717 23.356L16.132 24.771L14.718 26.185L12.243 23.71L9.414 26.539L8 25.125L10.829 22.295L8.354 19.821L9.768 18.407L11.182 19.82L12.595 18.406ZM8.547 8L12.093 8.003L23.91 19.821L25.325 18.407L26.74 19.821L24.265 22.296L27.093 25.125L25.679 26.539L22.85 23.71L20.376 26.185L18.961 24.771L20.375 23.356L8.549 11.531L8.547 8ZM23.004 8L26.547 8.003L26.549 11.526L22.496 15.578L18.96 12.043L23.004 8Z" fill="#8B8B8B"/>
</svg>
