<svg width="34" height="34" viewBox="0 0 34 34" fill="none" xmlns="http://www.w3.org/2000/svg">
<circle cx="17" cy="17" r="17" fill="#D9D9D9"/>
<path d="M13 21.975V21.4C13 20.6667 13.3667 20.079 14.1 19.637C14.8333 19.195 15.8 18.9743 17 18.975C18.2 18.9757 19.1667 19.1967 19.9 19.638C20.6333 20.0793 21 20.6667 21 21.4V21.975H13ZM17 17.975C16.45 17.975 15.9793 17.7793 15.588 17.388C15.1967 16.9967 15.0007 16.5257 15 15.975C14.9993 15.4243 15.1953 14.9537 15.588 14.563C15.9807 14.1723 16.4513 13.9763 17 13.975C17.5487 13.9737 18.0197 14.1697 18.413 14.563C18.8063 14.9563 19.002 15.427 19 15.975C18.998 16.523 18.8023 16.994 18.413 17.388C18.0237 17.782 17.5527 17.9777 17 17.975ZM12 25.125C10.0833 24.8917 8.60433 24.5 7.563 23.95C6.52167 23.4 6.00067 22.7417 6 21.975V11.975C6 11.025 6.946 10.2917 8.838 9.775C10.73 9.25833 13.4507 9 17 9C20.5493 9 23.2703 9.25833 25.163 9.775C27.0557 10.2917 28.0013 11.025 28 11.975V21.975C28 22.7417 27.4793 23.4 26.438 23.95C25.3967 24.5 23.9173 24.8917 22 25.125V13.125C22.85 12.9917 23.6043 12.829 24.263 12.637C24.9217 12.445 25.3923 12.2577 25.675 12.075C24.9583 11.7917 23.7333 11.5377 22 11.313C20.2667 11.0883 18.6 10.9757 17 10.975C15.4 10.9743 13.7333 11.087 12 11.313C10.2667 11.539 9.04167 11.793 8.325 12.075C8.60833 12.275 9.07933 12.4667 9.738 12.65C10.3967 12.8333 11.1507 12.9917 12 13.125V25.125Z" fill="#8B8B8B"/>
</svg>
