<svg width="34" height="34" viewBox="0 0 34 34" fill="none" xmlns="http://www.w3.org/2000/svg">
<circle cx="17" cy="17" r="17" fill="#D9D9D9"/>
<mask id="mask0_189_637" style="mask-type:alpha" maskUnits="userSpaceOnUse" x="5" y="4" width="25" height="25">
<rect x="5.36841" y="4.77197" width="23.8596" height="23.8596" fill="#D9D9D9"/>
</mask>
<g mask="url(#mask0_189_637)">
<path d="M13.3216 18.6901H21.2748V18.193C21.2748 17.486 20.9186 16.9309 20.2061 16.5278C19.4936 16.1247 18.5243 15.9231 17.2982 15.9231C16.0721 15.9231 15.1028 16.1247 14.3903 16.5278C13.6778 16.9309 13.3216 17.486 13.3216 18.193V18.6901ZM17.2982 14.498C17.823 14.498 18.2689 14.3144 18.6361 13.9472C19.0034 13.5799 19.1871 13.1338 19.1871 12.6091C19.1871 12.0845 19.0034 11.6386 18.6361 11.2712C18.2689 10.9039 17.823 10.7202 17.2982 10.7202C16.7735 10.7202 16.3275 10.9039 15.9603 11.2712C15.593 11.6386 15.4093 12.0845 15.4093 12.6091C15.4093 13.1338 15.593 13.5799 15.9603 13.9472C16.3275 14.3144 16.7735 14.498 17.2982 14.498ZM7.35669 26.6433V8.41726C7.35669 7.96989 7.52097 7.58184 7.84954 7.25311C8.17827 6.92454 8.56632 6.76025 9.01369 6.76025H25.5827C26.0301 6.76025 26.4181 6.92454 26.7469 7.25311C27.0754 7.58184 27.2397 7.96989 27.2397 8.41726V21.0097C27.2397 21.4571 27.0754 21.8451 26.7469 22.1738C26.4181 22.5024 26.0301 22.6667 25.5827 22.6667H11.3333L7.35669 26.6433Z" fill="#8B8B8B"/>
</g>
</svg>
