<svg width="34" height="34" viewBox="0 0 34 34" fill="none" xmlns="http://www.w3.org/2000/svg">
<circle cx="17" cy="17" r="17" fill="#D9D9D9"/>
<path d="M12.5 11C13.1951 11.0003 13.8745 11.2076 14.4514 11.5954C15.0282 11.9833 15.4766 12.5342 15.7392 13.1778C16.0018 13.8215 16.0668 14.5287 15.9259 15.2094C15.785 15.8902 15.4445 16.5135 14.948 17H15.5C15.8978 17 16.2794 17.158 16.5607 17.4393C16.842 17.7206 17 18.1022 17 18.5C17 18.8978 16.842 19.2794 16.5607 19.5607C16.2794 19.842 15.8978 20 15.5 20H15.13C15.51 21.791 16.628 22.996 17.268 23.558C17.685 23.924 18 24.475 18 25.11C18 25.3582 17.9511 25.604 17.8561 25.8333C17.7612 26.0626 17.6219 26.2709 17.4464 26.4464C17.2709 26.6219 17.0626 26.7612 16.8333 26.8561C16.604 26.9511 16.3582 27 16.11 27H8.89C8.6418 27 8.39603 26.9511 8.16673 26.8561C7.93742 26.7612 7.72907 26.6219 7.55357 26.4464C7.37807 26.2709 7.23885 26.0626 7.14387 25.8333C7.04889 25.604 7 25.3582 7 25.11C7 24.475 7.315 23.924 7.732 23.558C8.372 22.996 9.49 21.791 9.869 20H9.5C9.10218 20 8.72064 19.842 8.43934 19.5607C8.15804 19.2794 8 18.8978 8 18.5C8 18.1022 8.15804 17.7206 8.43934 17.4393C8.72064 17.158 9.10218 17 9.5 17H10.052C9.55546 16.5135 9.21505 15.8902 9.07414 15.2094C8.93324 14.5287 8.99823 13.8215 9.26084 13.1778C9.52344 12.5342 9.97176 11.9833 10.5486 11.5954C11.1255 11.2076 11.8049 11.0003 12.5 11ZM18 7C18.2652 7 18.5196 7.10536 18.7071 7.29289C18.8946 7.48043 19 7.73478 19 8V9.25C19 9.44891 19.079 9.63968 19.2197 9.78033C19.3603 9.92098 19.5511 10 19.75 10C19.9489 10 20.1397 9.92098 20.2803 9.78033C20.421 9.63968 20.5 9.44891 20.5 9.25V8C20.5 7.73478 20.6054 7.48043 20.7929 7.29289C20.9804 7.10536 21.2348 7 21.5 7C21.7652 7 22.0196 7.10536 22.2071 7.29289C22.3946 7.48043 22.5 7.73478 22.5 8V9.25C22.5 9.44891 22.579 9.63968 22.7197 9.78033C22.8603 9.92098 23.0511 10 23.25 10C23.4489 10 23.6397 9.92098 23.7803 9.78033C23.921 9.63968 24 9.44891 24 9.25V8C24 7.73478 24.1054 7.48043 24.2929 7.29289C24.4804 7.10536 24.7348 7 25 7H25.25C25.4489 7 25.6397 7.07902 25.7803 7.21967C25.921 7.36032 26 7.55109 26 7.75V12C26 12.5304 25.7893 13.0391 25.4142 13.4142C25.0391 13.7893 24.5304 14 24 14H23.78C24.04 19.454 25.943 22.726 26.606 23.712C26.842 24.062 27 24.492 27 24.959C27 26.086 26.086 26.999 24.959 27H18.293C18.733 26.493 19 25.834 19 25.11C19 24.137 18.52 23.327 17.927 22.807C17.6945 22.6024 17.4782 22.38 17.28 22.142C18.077 20.491 19.04 17.765 19.22 14H19C18.4696 14 17.9609 13.7893 17.5858 13.4142C17.2107 13.0391 17 12.5304 17 12V7.75C17 7.55109 17.079 7.36032 17.2197 7.21967C17.3603 7.07902 17.5511 7 17.75 7H18Z" fill="#8B8B8B"/>
</svg>
