<svg width="34" height="34" viewBox="0 0 34 34" fill="none" xmlns="http://www.w3.org/2000/svg">
<circle cx="17" cy="17" r="17" fill="#D9D9D9"/>
<path d="M7.91675 21.4194H9.75024C9.75024 21.4194 10.667 21.4194 10.667 22.314V24.1033C10.667 24.1033 10.667 24.9979 9.75024 24.9979H7.91675C7.91675 24.9979 7 24.9979 7 24.1033V22.314C7 22.314 7 21.4194 7.91675 21.4194ZM16.1675 21.4194H18.9177C18.9177 21.4194 19.8345 21.4194 19.8345 22.314V24.1033C19.8345 24.1033 19.8345 24.9979 18.9177 24.9979H16.1675C16.1675 24.9979 15.2507 24.9979 15.2507 24.1033V22.314C15.2507 22.314 15.2507 21.4194 16.1675 21.4194ZM10.667 8H13.4172C13.4172 8 14.334 8 14.334 8.89463V10.6839C14.334 10.6839 14.334 11.5785 13.4172 11.5785H10.667C10.667 11.5785 9.75024 11.5785 9.75024 10.6839V8.89463C9.75024 8.89463 9.75024 8 10.667 8ZM16.1675 8H18.9177C18.9177 8 19.8345 8 19.8345 8.89463V10.6839C19.8345 10.6839 19.8345 11.5785 18.9177 11.5785H16.1675C16.1675 11.5785 15.2507 11.5785 15.2507 10.6839V8.89463C15.2507 8.89463 15.2507 8 16.1675 8ZM7.91675 16.9463H18.9177C18.9177 16.9463 19.8345 16.9463 19.8345 17.8409V19.6301C19.8345 19.6301 19.8345 20.5248 18.9177 20.5248H7.91675C7.91675 20.5248 7 20.5248 7 19.6301V17.8409C7 17.8409 7 16.9463 7.91675 16.9463ZM7.91675 12.4731H18.9177C18.9177 12.4731 19.8345 12.4731 19.8345 13.3678V15.157C19.8345 15.157 19.8345 16.0516 18.9177 16.0516H7.91675C7.91675 16.0516 7 16.0516 7 15.157V13.3678C7 13.3678 7 12.4731 7.91675 12.4731ZM28.8644 22.6898L23.2998 13.9493C23.2361 13.8493 23.1528 13.7625 23.0547 13.6939C22.9567 13.6254 22.8457 13.5764 22.7281 13.5498C22.6106 13.5232 22.4888 13.5195 22.3698 13.539C22.2508 13.5584 22.1369 13.6005 22.0347 13.663L20.4762 14.6023C20.2722 14.7282 20.1272 14.9275 20.0728 15.157C20.0442 15.2718 20.0393 15.391 20.0581 15.5077C20.077 15.6244 20.1194 15.7363 20.1828 15.8369L25.7475 24.5774C25.8112 24.6774 25.8944 24.7642 25.9925 24.8328C26.0906 24.9013 26.2016 24.9503 26.3191 24.9769C26.4367 25.0035 26.5584 25.0072 26.6774 24.9877C26.7964 24.9683 26.9103 24.9262 27.0126 24.8637L28.5711 23.9154C28.7755 23.79 28.921 23.5909 28.976 23.3614C29.0309 23.132 28.9908 22.8906 28.8644 22.6898Z" fill="#8B8B8B"/>
</svg>
