<svg width="37" height="37" viewBox="0 0 37 37" fill="none" xmlns="http://www.w3.org/2000/svg">
<path d="M16.1176 29.6763C14.983 30.221 13.6971 30.5235 12.3355 30.5235C7.32799 30.5235 3.25842 26.454 3.25842 21.4464V13.8822C3.25842 8.87465 7.32799 4.80509 12.3355 4.80509L16.1176 11.7339C12.4868 13.5947 10.0662 16.9079 10.0662 20.69C10.0662 24.4721 12.5019 27.8004 16.1176 29.6763ZM24.4383 28.9199V30.5235H25.9512C26.7832 30.5235 27.464 31.2043 27.464 32.0364C27.464 32.8684 26.7832 33.5492 25.9512 33.5492H21.4126C20.5805 33.5492 19.8998 32.8684 19.8998 32.0364C19.8998 31.2043 20.5805 30.5235 21.4126 30.5235V28.9199C16.2841 28.345 12.3355 24.8806 12.3355 20.69C12.3355 16.0909 17.0707 12.3693 22.9255 12.3693H23.7727C22.6834 10.2967 21.4126 8.17874 21.4126 6.31793C21.4126 4.6538 22.7742 3.29224 24.4383 3.29224C27.7817 3.29224 30.4897 6.00024 30.4897 9.34363H27.464C27.464 9.34363 33.5154 13.8822 33.5154 20.69C33.5154 24.8806 29.5669 28.345 24.4383 28.9199ZM25.9512 18.4207C25.9512 17.6183 25.6324 16.8487 25.065 16.2812C24.4975 15.7138 23.7279 15.395 22.9255 15.395C19.5821 15.395 16.8741 18.103 16.8741 21.4464H22.9255C24.6047 21.4464 25.9512 20.1 25.9512 18.4207Z" fill="#040078"/>
</svg>
