<svg width="35" height="35" viewBox="0 0 35 35" fill="none" xmlns="http://www.w3.org/2000/svg">
<g clip-path="url(#clip0_242_443)">
<path d="M14.875 30.52C13.5625 31.15 12.075 31.5 10.5 31.5C4.7075 31.5 0 26.7925 0 21V12.25C0 6.4575 4.7075 1.75 10.5 1.75L14.875 9.765C10.675 11.9175 7.875 15.75 7.875 20.125C7.875 24.5 10.6925 28.35 14.875 30.52ZM24.5 29.645V31.5H26.25C27.2125 31.5 28 32.2875 28 33.25C28 34.2125 27.2125 35 26.25 35H21C20.0375 35 19.25 34.2125 19.25 33.25C19.25 32.2875 20.0375 31.5 21 31.5V29.645C15.0675 28.98 10.5 24.9725 10.5 20.125C10.5 14.805 15.9775 10.5 22.75 10.5H23.73C22.47 8.1025 21 5.6525 21 3.5C21 1.575 22.575 0 24.5 0C28.3675 0 31.5 3.1325 31.5 7H28C28 7 35 12.25 35 20.125C35 24.9725 30.4325 28.98 24.5 29.645ZM26.25 17.5C26.25 16.5717 25.8813 15.6815 25.2249 15.0251C24.5685 14.3687 23.6783 14 22.75 14C18.8825 14 15.75 17.1325 15.75 21H22.75C24.6925 21 26.25 19.4425 26.25 17.5Z" fill="#040078"/>
</g>
<defs>
<clipPath id="clip0_242_443">
<rect width="35" height="35" fill="white"/>
</clipPath>
</defs>
</svg>
