<svg width="34" height="34" viewBox="0 0 34 34" fill="none" xmlns="http://www.w3.org/2000/svg">
<circle cx="17" cy="17" r="17" fill="#D9D9D9"/>
<path d="M17 5C14.6266 5 12.3066 5.70379 10.3332 7.02236C8.35977 8.34094 6.8217 10.2151 5.91345 12.4078C5.0052 14.6005 4.76756 17.0133 5.23058 19.3411C5.6936 21.6689 6.83649 23.8071 8.51472 25.4853C10.193 27.1635 12.3312 28.3064 14.6589 28.7694C16.9867 29.2324 19.3995 28.9948 21.5922 28.0866C23.7849 27.1783 25.6591 25.6402 26.9776 23.6668C28.2962 21.6935 29 19.3734 29 17C29 13.8174 27.7357 10.7652 25.4853 8.51472C23.2348 6.26428 20.1826 5 17 5ZM8.81001 18.79C8.769 18.6983 8.74684 18.5993 8.74483 18.4988C8.74283 18.3984 8.76102 18.2986 8.79833 18.2053C8.83564 18.1121 8.8913 18.0272 8.96202 17.9559C9.03274 17.8845 9.11707 17.8281 9.21001 17.79L10.75 17.15C10.7314 16.3171 10.8792 15.4888 11.1848 14.7137C11.4904 13.9386 11.9477 13.2324 12.5298 12.6363C13.1119 12.0402 13.8071 11.5664 14.5747 11.2425C15.3423 10.9185 16.1669 10.7511 17 10.75C17.6088 10.7473 18.215 10.8315 18.8 11C18.991 11.0583 19.1509 11.1902 19.2447 11.3664C19.3385 11.5427 19.3584 11.749 19.3 11.94C19.2417 12.131 19.1098 12.2909 18.9336 12.3847C18.7573 12.4784 18.551 12.4983 18.36 12.44C17.9181 12.3118 17.4601 12.2478 17 12.25C15.8201 12.2517 14.6829 12.6915 13.8089 13.4842C12.9349 14.2768 12.3865 15.3659 12.27 16.54L23.71 11.81C23.8018 11.7643 23.902 11.7379 24.0044 11.7325C24.1067 11.727 24.2092 11.7426 24.3053 11.7783C24.4014 11.814 24.4892 11.869 24.5632 11.94C24.6372 12.0109 24.6959 12.0963 24.7356 12.1908C24.7754 12.2853 24.7953 12.387 24.7942 12.4895C24.7931 12.5921 24.7709 12.6933 24.7292 12.7869C24.6874 12.8805 24.6269 12.9646 24.5514 13.034C24.4758 13.1033 24.3869 13.1564 24.29 13.19L9.79001 19.19C9.69792 19.2279 9.59956 19.2482 9.50001 19.25C9.3525 19.2497 9.20837 19.2059 9.08565 19.124C8.96292 19.0422 8.86704 18.926 8.81001 18.79ZM24.81 16.19L23.27 16.83C23.2914 17.6663 23.1449 18.4984 22.8393 19.2771C22.5337 20.0558 22.0751 20.7654 21.4905 21.3639C20.906 21.9624 20.2075 22.4376 19.4362 22.7616C18.665 23.0855 17.8366 23.2516 17 23.25C16.4444 23.243 15.8925 23.1589 15.36 23C15.2648 22.9744 15.1756 22.9303 15.0974 22.8702C15.0192 22.8101 14.9537 22.7352 14.9045 22.6498C14.8553 22.5643 14.8233 22.4701 14.8106 22.3723C14.7978 22.2745 14.8044 22.1752 14.83 22.08C14.8556 21.9848 14.8997 21.8956 14.9598 21.8174C15.0199 21.7392 15.0948 21.6737 15.1802 21.6245C15.2657 21.5752 15.36 21.5433 15.4577 21.5306C15.5555 21.5178 15.6548 21.5244 15.75 21.55C16.1571 21.6626 16.5776 21.7198 17 21.72C18.1799 21.7183 19.3171 21.2785 20.1911 20.4858C21.0651 19.6932 21.6135 18.6041 21.73 17.43L10.29 22.19C10.1979 22.2279 10.0996 22.2482 10 22.25C9.82747 22.2491 9.66052 22.1887 9.5273 22.0791C9.39408 21.9694 9.30274 21.8172 9.26868 21.6481C9.23462 21.4789 9.25991 21.3032 9.34031 21.1506C9.4207 20.9979 9.55127 20.8776 9.71001 20.81L24.21 14.81C24.3018 14.7643 24.402 14.7379 24.5044 14.7325C24.6067 14.727 24.7092 14.7426 24.8053 14.7783C24.9014 14.814 24.9892 14.869 25.0632 14.94C25.1372 15.0109 25.1959 15.0963 25.2356 15.1908C25.2754 15.2853 25.2953 15.387 25.2942 15.4895C25.2931 15.5921 25.2709 15.6933 25.2292 15.7869C25.1874 15.8805 25.1269 15.9646 25.0514 16.034C24.9758 16.1033 24.8869 16.1564 24.79 16.19H24.81Z" fill="#8B8B8B"/>
</svg>
