<svg width="33" height="34" viewBox="0 0 33 34" fill="none" xmlns="http://www.w3.org/2000/svg">
<ellipse cx="16.5941" cy="17" rx="16.4059" ry="17" fill="#D9D9D9"/>
<mask id="mask0_189_677" style="mask-type:alpha" maskUnits="userSpaceOnUse" x="4" y="5" width="24" height="23">
<rect x="4.81396" y="5.20312" width="22.6462" height="22.6462" fill="#D9D9D9"/>
</mask>
<g mask="url(#mask0_189_677)">
<path d="M11.4977 25.9622V23.8704L14.3914 21.8575V18.0202L6.70117 21.1185V18.5708L14.3914 13.1765V8.83598C14.3914 8.35899 14.5631 7.94876 14.9064 7.6053C15.2499 7.26199 15.6601 7.09033 16.1371 7.09033C16.6141 7.09033 17.0243 7.26199 17.3678 7.6053C17.7111 7.94876 17.8827 8.35899 17.8827 8.83598V13.1765L25.573 18.5708V21.1185L17.8827 18.0202V21.8575L20.7607 23.8704V25.9622L16.1371 24.5626L11.4977 25.9622Z" fill="#8B8B8B"/>
</g>
</svg>
