<svg width="34" height="34" viewBox="0 0 34 34" fill="none" xmlns="http://www.w3.org/2000/svg">
<circle cx="17" cy="17" r="17" fill="#D9D9D9"/>
<mask id="mask0_189_654" style="mask-type:alpha" maskUnits="userSpaceOnUse" x="5" y="4" width="25" height="25">
<rect x="5.36841" y="4.77197" width="23.8596" height="23.8596" fill="#D9D9D9"/>
</mask>
<g mask="url(#mask0_189_654)">
<path d="M24.3567 25.6491L18.3836 19.676L20.0239 18.0356L25.997 24.0087L24.3567 25.6491ZM10.157 25.6491L8.51661 24.0087L15.6081 16.9172L13.2719 14.5809L12.6587 15.1938L11.5073 14.0424V16.1301L10.8777 16.7596L7.85376 13.7359L8.48331 13.1061H10.5877L9.37804 11.8967L12.7251 8.54967C13.0234 8.25142 13.3465 8.04431 13.6944 7.92832C14.0424 7.81234 14.4152 7.75435 14.8128 7.75435C15.2105 7.75435 15.5833 7.82617 15.9312 7.96983C16.2792 8.11332 16.6023 8.33419 16.9005 8.63243L14.3655 11.1675L15.5751 12.3772L14.9453 13.0067L17.2318 15.2933L19.9991 12.5263C19.8886 12.322 19.8016 12.0927 19.7381 11.8386C19.6745 11.5846 19.6427 11.3195 19.6427 11.0432C19.6427 10.1319 19.9672 9.35187 20.6162 8.70302C21.2652 8.054 22.0454 7.72949 22.9567 7.72949C23.2052 7.72949 23.4248 7.75435 23.6153 7.80405C23.8058 7.85376 23.9784 7.92277 24.133 8.01109L21.9044 10.2397L23.7435 12.0789L25.9722 9.85027C26.0661 10.016 26.1393 10.1996 26.1916 10.4013C26.2442 10.6029 26.2704 10.828 26.2704 11.0766C26.2704 11.9879 25.9459 12.7679 25.2969 13.4168C24.6481 14.0658 23.868 14.3903 22.9567 14.3903C22.6916 14.3903 22.454 14.371 22.2441 14.3324C22.0342 14.2936 21.8381 14.2328 21.6558 14.15L10.157 25.6491Z" fill="#8B8B8B"/>
</g>
</svg>
